<svg version="1.0" xmlns="http://www.w3.org/2000/svg"
 width="1280.000000pt" height="960.000000pt" viewBox="0 0 1280.000000 960.000000"
 preserveAspectRatio="xMidYMid meet">
<metadata>
Created by potrace 1.15, written by Peter Selinger 2001-2017
</metadata>
<g transform="translate(0.000000,960.000000) scale(0.100000,-0.100000)"
fill="#0C5DA5" stroke="none">
<path d="M6060 9589 c-1259 -94 -2437 -678 -3259 -1615 -551 -628 -922 -1365
-1095 -2178 -75 -351 -101 -603 -101 -996 0 -393 26 -645 101 -996 255 -1195
945 -2236 1952 -2944 56 -39 172 -114 257 -165 1532 -925 3438 -925 4970 0
1132 684 1932 1809 2209 3109 75 351 101 603 101 996 0 393 -26 645 -101 996
-303 1423 -1231 2630 -2523 3283 -583 295 -1192 462 -1856 511 -162 12 -489
11 -655 -1z m675 -1794 c1115 -128 2057 -850 2468 -1890 142 -359 207 -705
207 -1105 0 -400 -65 -746 -207 -1105 -411 -1040 -1353 -1762 -2468 -1890
-168 -19 -502 -19 -670 0 -1115 128 -2057 850 -2468 1890 -97 245 -161 501
-192 770 -19 168 -19 502 0 670 127 1106 837 2041 1866 2459 238 97 519 169
779 200 159 19 523 20 685 1z"/>
</g>
</svg>
